<?xml version="1.0" encoding="utf-8"?>
<!-- Generator: Adobe Illustrator 23.0.0, SVG Export Plug-In . SVG Version: 6.00 Build 0)  -->
<svg version="1.1" id="Layer_1" xmlns="http://www.w3.org/2000/svg" xmlns:xlink="http://www.w3.org/1999/xlink" x="0px" y="0px"
	 viewBox="0 0 450.5 188.9" style="enable-background:new 0 0 450.5 188.9;" xml:space="preserve">
<style type="text/css">
	.st0{clip-path:url(#SVGID_2_);fill:#767C80;}
	.st1{clip-path:url(#SVGID_4_);}
	.st2{clip-path:url(#SVGID_8_);fill:#EF4E34;}
</style>
<g>
	<g>
		<defs>
			<rect id="SVGID_1_" x="-0.1" y="0.2" width="450.6" height="188.7"/>
		</defs>
		<clipPath id="SVGID_2_">
			<use xlink:href="#SVGID_1_"  style="overflow:visible;"/>
		</clipPath>
		<path class="st0" d="M151.3,159.5V116h16.1v43.4c0,14.5-12.9,22.5-27.3,22.5c-12.9,0-25.7-8-25.7-22.5V116h16.1v43.4
			c0,4.8,4.8,8,9.7,8C144.9,167.5,151.3,164.3,151.3,159.5"/>
		<path class="st0" d="M38.7,34c14.5,0,28.9,8,32.2,25.7H53.2c-1.6-6.4-6.4-9.7-14.5-9.7c-9.7,0-14.5,6.4-14.5,17.7
			c0,9.7,6.4,17.7,16.1,17.7c6.4,0,12.9-3.2,14.5-9.7h16.1c-1.6,17.7-17.7,25.7-30.6,25.7c-17.7,0-33.8-11.3-33.8-33.8
			C6.5,45.3,22.6,34,38.7,34"/>
		<path class="st0" d="M366.9,34c14.5,0,29,8,32.2,25.7h-17.7c-1.6-6.4-6.4-9.7-14.5-9.7c-9.6,0-14.5,6.4-14.5,17.7
			c0,9.7,6.4,17.7,16.1,17.7c6.4,0,12.9-3.2,14.5-9.7h16.1c-1.6,17.7-17.7,25.7-30.6,25.7c-17.7,0-33.8-11.3-33.8-33.8
			C334.7,45.3,350.8,34,366.9,34"/>
		<path class="st0" d="M74.1,67.8c0-45,67.6-45,67.6,0C141.7,114.4,74.1,114.4,74.1,67.8 M125.6,67.8c0-22.5-33.8-22.5-33.8,0
			C91.8,91.9,125.6,91.9,125.6,67.8"/>
		<polygon class="st0" points="235,67.8 235,101.6 218.9,101.6 218.9,34 223.7,34 257.5,67.8 257.5,34 275.2,34 275.2,101.6 
			268.8,101.6 		"/>
		<polygon class="st0" points="328.3,50.1 304.2,50.1 304.2,61.3 325.1,61.3 325.1,75.8 304.2,75.8 304.2,87.1 328.3,87.1 
			328.3,101.6 286.5,101.6 286.5,34 328.3,34 		"/>
		<polygon class="st0" points="402.3,50.1 402.3,34 450.6,34 450.6,50.1 434.5,50.1 434.5,101.6 418.4,101.6 418.4,50.1 		"/>
		<path class="st0" d="M6.5,182v-66h29c30.6,0,30.6,48.3,0,48.3H22.6V182H6.5z M35.5,130.5H22.6v19.3h12.9
			C43.5,149.8,45.1,130.5,35.5,130.5"/>
		<polygon class="st0" points="83.8,167.5 107.9,167.5 107.9,182 67.7,182 67.7,116 83.8,116 		"/>
		<path class="st0" d="M215.7,161.1c0-4.8-4.8-4.8-12.9-4.8c-12.9-1.6-22.5-6.4-22.5-20.9c-1.6-29,49.9-29,49.9,0h-16.1
			c0-8-17.7-8-17.7,0c-1.6,4.8,3.2,6.4,9.7,6.4c12.9,1.6,25.7,3.2,25.7,19.3c0,27.3-53.1,29-53.1,0h16.1
			C194.8,169.1,215.7,169.1,215.7,161.1"/>
	</g>
	<g>
		<defs>
			<path id="SVGID_3_" d="M188.3,72.4h1.6v-6.4h-1.6V72.4z M186.7,62.7v22.5v1.6h1.6V72.4v-6.4v-3.2H186.7z M185.1,61.1v22.5v1.6
				h1.6V62.7v-1.6H185.1z M183.5,59.5V82v1.6h1.6V61.1v-1.6H183.5z M181.9,57.9v22.5V82h1.6V59.5v-1.6H181.9z M180.3,56.3v22.5v1.6
				h1.6V57.9v-1.6H180.3z M178.7,54.7v22.5v1.6h1.6V56.3v-1.6H178.7z M177.1,53.1v22.5v1.6h1.6V54.7v-1.6H177.1z M175.4,51.5V74v1.6
				h1.6V53.1v-1.6H175.4z M173.8,49.8v22.5V74h1.6V51.5v-1.6H173.8z M172.2,48.2v22.5v1.6h1.6V49.8v-1.6H172.2z M170.6,45H169h-1.6
				v20.9v1.6h1.6v1.6h1.6v1.6h1.6V48.2V45H170.6z M165.8,43.4v9.6h-1.6v11.3h1.6v1.6h1.6V45v-1.6H165.8z"/>
		</defs>
		<clipPath id="SVGID_4_">
			<use xlink:href="#SVGID_3_"  style="overflow:visible;"/>
		</clipPath>
		<g class="st1">
			<defs>
				<rect id="SVGID_5_" x="164.2" y="40.2" width="29" height="48.3"/>
			</defs>
			<clipPath id="SVGID_6_">
				<use xlink:href="#SVGID_5_"  style="overflow:visible;"/>
			</clipPath>
			<g transform="matrix(1 0 0 1 0 0)" style="clip-path:url(#SVGID_6_);">
				
					<image style="overflow:visible;" width="15" height="9" xlink:href="2807DBAE.jpg"  transform="matrix(0 3.2175 -3.2175 0 193.1492 40.187)">
				</image>
			</g>
		</g>
	</g>
	<g>
		<defs>
			<rect id="SVGID_7_" x="-0.1" y="0" width="450.6" height="188.7"/>
		</defs>
		<clipPath id="SVGID_8_">
			<use xlink:href="#SVGID_7_"  style="overflow:visible;"/>
		</clipPath>
		<path class="st2" d="M167.4,43.4c-1.6,0-3.2,1.6-4.8,3.2l-6.4,8c-1.6,3.2-4.8,6.4-6.4,11.3v78.8h1.6v-1.6l9.6-11.3
			c3.2-3.2,6.4-6.4,6.4-12.9V43.4z"/>
		<path class="st2" d="M188.3,86.8l11.3,12.9h1.6c1.6,1.6,3.2,3.2,3.2-1.6v-4.8V0l-1.6,1.6l-9.6,11.3c-1.6,3.2-4.8,8-4.8,12.9V86.8z
			"/>
	</g>
</g>
</svg>
